<svg width="1440" height="522" viewBox="0 0 1440 522" fill="none" xmlns="http://www.w3.org/2000/svg">
<path d="M1056.22 0L1059.37 522H762.839L756.677 0H1056.22Z" fill="#D6D6D6"/>
<path d="M679.218 0L676.325 522H380.3L379.923 0H679.218Z" fill="#D6D6D6"/>
<path d="M1153.78 0H1440V511.101C1440 517.114 1435.09 522 1429.06 522H1153.78C1147.75 522 1142.84 517.114 1142.84 511.101V10.8985C1142.84 4.88552 1147.75 0 1153.78 0Z" fill="#D6D6D6"/>
<path d="M1440 0H1139.57L762.812 522H1059.34L1440 0Z" fill="white"/>
<path d="M1056.21 0H756.659L380.277 522H676.68L1056.21 0Z" fill="white"/>
<path d="M679.199 0H379.904L0 522H299.672L679.199 0Z" fill="white"/>
</svg>
